HIERARCHY
ROOT Pelvis
{
	OFFSET 0.000000 0.000000 0.000000
	CHANNELS 6 Xposition Yposition Zposition Xrotation Yrotation Zrotation
	JOINT LeftUpLeg_virtual
	{
		OFFSET 0.000000 0.000000 0.000000
		CHANNELS 3 Xrotation Yrotation Zrotation
		JOINT LeftUpLeg
		{
			OFFSET 18.735201 -5.666702 -4.541200
			CHANNELS 3 Xrotation Yrotation Zrotation
			JOINT LeftLeg
			{
				OFFSET -0.021200 -31.938179 0.493100
				CHANNELS 3 Xrotation Yrotation Zrotation
				JOINT LeftFoot
				{
					OFFSET 0.021200 -31.938179 -4.336299
					CHANNELS 3 Xrotation Yrotation Zrotation
					JOINT LeftToeBase
					{
						OFFSET 0.943001 -26.722000 15.023500
						CHANNELS 3 Xrotation Yrotation Zrotation
						End Site
						{
							OFFSET 0 0 0
						}
					}
				}
			}
		}
	}
	JOINT RightUpLeg_virtual
	{
		OFFSET 0.000000 0.000000 0.000000
		CHANNELS 3 Xrotation Yrotation Zrotation
		JOINT RightUpLeg
		{
			OFFSET -18.735201 -5.666702 -4.541200
			CHANNELS 3 Xrotation Yrotation Zrotation
			JOINT RightLeg
			{
				OFFSET 0.018946 -31.938133 0.493100
				CHANNELS 3 Xrotation Yrotation Zrotation
				JOINT RightFoot
				{
					OFFSET -0.018946 -31.938126 -4.336299
					CHANNELS 3 Xrotation Yrotation Zrotation
					JOINT RightToeBase
					{
						OFFSET -0.943001 -26.722004 15.023500
						CHANNELS 3 Xrotation Yrotation Zrotation
						End Site
						{
							OFFSET 0 0 0
						}
					}
				}
			}
		}
	}
	JOINT Hips_virtual
	{
		OFFSET 0.000000 0.000000 0.000000
		CHANNELS 3 Xrotation Yrotation Zrotation
		JOINT Hips
		{
			OFFSET -0.000000 -0.000000 -0.000000
			CHANNELS 3 Xrotation Yrotation Zrotation
			JOINT Spine
			{
				OFFSET 0.000000 10.199997 -0.299500
				CHANNELS 3 Xrotation Yrotation Zrotation
				JOINT Spine1
				{
					OFFSET 0.000000 11.900002 -1.516600
					CHANNELS 3 Xrotation Yrotation Zrotation
					JOINT Spine2
					{
						OFFSET 0.000000 13.600006 -2.842500
						CHANNELS 3 Xrotation Yrotation Zrotation
						JOINT Neck_virtual
						{
							OFFSET 0.000000 0.000000 0.000000
							CHANNELS 3 Xrotation Yrotation Zrotation
							JOINT Neck
							{
								OFFSET 0.000000 9.624100 -2.890100
								CHANNELS 3 Xrotation Yrotation Zrotation
								JOINT Head
								{
									OFFSET 0.000000 14.068802 -1.351900
									CHANNELS 3 Xrotation Yrotation Zrotation
									End Site
									{
										OFFSET 0 0 0
									}
								}
							}
						}
						JOINT LeftShoulder_virtual
						{
							OFFSET 0.000000 0.000000 0.000000
							CHANNELS 3 Xrotation Yrotation Zrotation
							JOINT LeftShoulder
							{
								OFFSET 15.263000 10.923401 -0.547700
								CHANNELS 3 Xrotation Yrotation Zrotation
								JOINT LeftArm
								{
									OFFSET 25.438599 -2.830597 -13.032500
									CHANNELS 3 Xrotation Yrotation Zrotation
									JOINT LeftForeArm
									{
										OFFSET 29.960503 0.000000 0.000000
										CHANNELS 3 Xrotation Yrotation Zrotation
										JOINT LeftHand
										{
											OFFSET 27.849251 0.000000 0.000000
											CHANNELS 3 Xrotation Yrotation Zrotation
											End Site
											{
												OFFSET 0 0 0
											}
										}
									}
								}
							}
						}
						JOINT RightShoulder_virtual
						{
							OFFSET 0.000000 0.000000 0.000000
							CHANNELS 3 Xrotation Yrotation Zrotation
							JOINT RightShoulder
							{
								OFFSET -15.263000 10.923401 -0.547700
								CHANNELS 3 Xrotation Yrotation Zrotation
								JOINT RightArm
								{
									OFFSET -25.438599 -2.830597 -13.032500
									CHANNELS 3 Xrotation Yrotation Zrotation
									JOINT RightForeArm
									{
										OFFSET -29.960503 0.000000 0.000000
										CHANNELS 3 Xrotation Yrotation Zrotation
										JOINT RightHand
										{
											OFFSET -27.849251 0.000000 0.000000
											CHANNELS 3 Xrotation Yrotation Zrotation
											End Site
											{
												OFFSET 0 0 0
											}
										}
									}
								}
							}
						}
					}
				}
			}
		}
	}
}
MOTION
Frames: 9
Frame Time: 0.03333333
-2.529503 83.444214 1.048889 0.000000 0.000000 0.000000 9.511085 -61.528195 10.139692 -41.485626 6.898398 29.341618 42.476376 -8.855470 1.133462 -6.285690 -1.073339 -21.274702 0.000000 0.000000 0.000000 9.511085 -61.528195 10.139692 -31.349243 -15.813432 -39.178119 41.611524 6.255672 -4.187889 -15.613018 -2.030436 28.893148 0.000000 0.000000 0.000000 9.511085 -61.528195 10.139692 0.000000 0.000001 0.000000 15.063788 -0.418059 -4.284001 5.872407 0.563923 -2.798210 0.000000 0.000000 0.000000 5.868714 0.648185 -2.860163 -0.718880 0.306353 0.742034 0.000000 0.000000 0.000000 5.868714 0.648185 -2.860163 1.828098 -3.192691 -12.271570 -39.387420 26.350498 -34.911098 0.429376 -46.808451 0.416218 0.000000 0.000000 0.000000 5.868714 0.648185 -2.860163 0.632604 7.257351 8.700391 7.935999 -9.680139 53.429886 -22.867429 36.194672 17.955435 0.000000 0.000000 0.000000 
-2.051557 82.213333 0.846405 0.000000 0.000000 0.000000 8.499074 -43.222004 5.971961 -53.369391 -0.391438 23.140206 40.186750 -14.531765 1.044406 2.736048 -7.091686 -18.943246 0.000000 0.000000 0.000000 8.499074 -43.222004 5.971961 -21.816594 -20.417940 -38.581174 44.527236 -2.221538 1.016013 -18.121930 -4.479441 32.411437 0.000000 0.000000 0.000000 8.499074 -43.222004 5.971961 0.000000 0.000003 0.000000 19.043266 -0.528819 -1.677158 8.434710 -1.248285 0.996158 0.000000 0.000000 0.000000 8.432946 -1.053498 0.978030 -1.005533 -0.113007 1.134085 0.000000 0.000000 0.000000 8.432946 -1.053498 0.978030 3.416878 -8.568153 -4.408956 -14.803030 11.945507 -33.781740 -16.458820 -59.708824 -14.596244 0.000000 0.000000 0.000000 8.432946 -1.053498 0.978030 2.138312 11.266877 6.137825 17.411411 3.777399 45.935949 -16.048061 34.606779 15.226665 0.000000 0.000000 0.000000 
-3.209594 82.343513 3.169365 0.000000 0.000000 0.000000 -1.097024 -17.893537 4.290699 -47.151412 7.967621 8.753324 21.014382 -25.782158 -1.588919 18.379356 -18.033134 -15.011508 0.000000 0.000000 0.000000 -1.097024 -17.893537 4.290699 0.834660 -25.124168 -32.456687 47.488154 -15.305201 0.994112 -18.755493 -6.394323 32.368816 0.000000 0.000000 0.000000 -1.097024 -17.893537 4.290699 0.000000 -0.000001 0.000000 16.766195 1.959880 -1.614752 5.284550 2.633932 2.560246 0.000000 0.000000 0.000000 5.269076 2.814639 2.432384 7.418328 -1.423164 4.828269 0.000000 0.000000 0.000000 5.269076 2.814639 2.432384 0.907824 -6.380195 -5.024940 -28.312102 3.762126 -48.592933 23.186785 -54.716488 21.547976 0.000000 0.000000 0.000000 5.269076 2.814639 2.432384 -0.419584 12.460901 21.415910 25.186304 -1.964542 37.765199 1.735767 22.440324 11.670354 0.000000 0.000000 0.000000 
-4.935972 83.859322 7.050514 0.000000 0.000000 0.000000 -10.750014 5.957019 7.257937 -26.127166 17.393210 -4.853923 -2.836193 -38.395813 -4.115848 31.676006 -23.941859 -14.590643 0.000000 0.000000 0.000000 -10.750014 5.957019 7.257937 16.496859 -18.772555 -19.551311 44.493754 -13.866029 -1.310532 9.433195 0.808337 20.803303 0.000000 0.000000 0.000000 -10.750014 5.957019 7.257937 0.000001 0.000000 0.000000 14.031825 5.056951 0.785021 2.426408 6.383987 4.898216 0.000000 0.000000 0.000000 2.425247 6.512644 4.753641 10.809311 -0.210335 6.491783 0.000000 0.000000 0.000000 2.425247 6.512644 4.753641 -0.025274 1.544053 -0.983257 -28.761380 1.244523 -58.580839 5.753688 -54.835050 5.399403 0.000000 0.000000 0.000000 2.425247 6.512644 4.753641 -0.664146 12.856043 29.813158 17.200944 -11.687434 27.402926 52.867211 12.958488 -8.573370 0.000000 0.000000 0.000000 
-5.313997 85.271881 8.944466 0.000000 0.000000 0.000000 -14.264019 19.943587 11.269454 -22.923401 12.490609 -10.619255 -1.427735 -34.713268 -5.844554 40.047646 -15.168120 -10.022113 0.000000 0.000000 0.000000 -14.264019 19.943587 11.269454 19.759958 -9.547837 -7.623008 40.593477 -6.267453 -1.069078 25.396406 2.291077 10.481053 0.000000 0.000000 0.000000 -14.264019 19.943587 11.269454 0.000000 0.000000 0.000000 12.685929 6.129674 2.016821 -0.481214 7.717561 5.754064 0.000000 0.000000 0.000000 -0.445484 7.827151 5.612236 9.280053 1.260555 3.390840 0.000000 0.000000 0.000000 -0.445484 7.827151 5.612236 -0.236333 5.908000 -1.207440 -23.464405 -4.177167 -39.116517 -1.279235 -54.708914 -1.666743 0.000000 0.000000 0.000000 -0.445484 7.827151 5.612236 -1.160307 14.525108 29.542744 21.154822 -18.031030 20.345334 55.533147 12.707937 -10.210295 0.000000 0.000000 0.000000 
-6.139109 85.902588 8.911839 0.000000 0.000000 0.000000 -14.819171 26.347164 14.270055 -26.014884 9.306292 -14.238528 7.998729 -29.152234 -5.159840 40.353178 -4.744558 -5.048627 0.000000 0.000000 0.000000 -14.819171 26.347164 14.270055 20.291044 -6.733199 -6.957647 38.925835 -5.335295 0.030139 30.552577 3.370134 13.508892 0.000000 0.000000 0.000000 -14.819171 26.347164 14.270055 -0.000001 0.000001 0.000000 11.874543 6.862816 1.975719 -2.629116 9.068178 4.911469 0.000000 0.000000 0.000000 -2.535123 9.165100 4.761496 8.101085 2.496760 1.013888 0.000000 0.000000 0.000000 -2.535123 9.165100 4.761496 -0.886035 9.004698 -0.175920 -20.041827 -8.992525 -23.789629 18.414948 -45.728991 13.007259 0.000000 0.000000 0.000000 -2.535123 9.165100 4.761496 -1.421788 17.159742 27.139231 28.269972 -21.260429 17.587343 37.815349 17.591483 -6.364012 0.000000 0.000000 0.000000 
-6.689156 86.396507 8.432007 0.000000 0.000000 0.000000 -15.004764 31.025827 15.187038 -29.016939 7.151711 -15.922265 13.564617 -23.898939 -5.018750 41.549878 -1.415485 -3.762501 0.000000 0.000000 0.000000 -15.004764 31.025827 15.187038 21.017877 -6.832657 -7.160337 35.747895 -7.595903 1.921309 33.728092 3.967096 14.993051 0.000000 0.000000 0.000000 -15.004764 31.025827 15.187038 0.000000 0.000001 0.000000 11.525714 7.946613 2.041381 -4.411552 10.855699 4.779996 0.000000 0.000000 0.000000 -4.230664 10.966743 4.599273 7.049621 3.251408 -0.703405 0.000000 0.000000 0.000000 -4.230664 10.966743 4.599273 -1.297749 12.282559 0.433742 -22.919306 -11.459917 -17.495497 24.725051 -35.675953 16.206371 0.000000 0.000000 0.000000 -4.230664 10.966743 4.599273 -0.805843 19.848195 22.901372 30.396920 -23.885945 14.609076 20.588914 19.702804 -0.733686 0.000000 0.000000 0.000000 
-7.419100 86.957596 7.445957 0.000000 0.000000 0.000000 -15.485579 34.634899 15.463466 -28.642875 5.887847 -16.334399 10.450028 -23.506769 -5.520606 45.449568 -2.033986 -7.026307 0.000000 0.000000 0.000000 -15.485579 34.634899 15.463466 21.278648 -6.685668 -5.546863 33.080788 -10.493290 3.084876 36.695615 4.551303 15.600968 0.000000 0.000000 0.000000 -15.485579 34.634899 15.463466 0.000001 -0.000002 0.000000 11.485165 8.715256 1.440734 -5.207201 12.368652 5.120507 0.000000 0.000000 0.000000 -4.981312 12.497592 4.903126 6.050232 3.953815 -2.138116 0.000000 0.000000 0.000000 -4.981312 12.497592 4.903126 -1.237419 14.611079 0.472809 -31.270262 -8.709323 -14.492425 20.166332 -31.593054 13.862012 0.000000 0.000000 0.000000 -4.981312 12.497592 4.903126 0.805948 22.041779 16.682720 29.184022 -21.909466 11.061912 19.147295 18.045105 1.420526 0.000000 0.000000 0.000000 
-8.299335 87.123650 6.767818 0.000000 0.000000 0.000000 -15.508588 37.284077 15.981681 -28.304029 6.803609 -18.098920 10.718785 -27.062292 -5.049015 42.622259 -1.260253 -5.662982 0.000000 0.000000 0.000000 -15.508588 37.284077 15.981681 20.357667 -7.533301 -4.570620 32.600537 -10.766685 3.822094 37.541875 5.018032 16.354596 0.000000 0.000000 0.000000 -15.508588 37.284077 15.981681 -0.000001 0.000000 0.000000 11.356263 9.044087 0.923381 -5.132769 13.238326 4.509778 0.000000 0.000000 0.000000 -4.880035 13.361328 4.271077 5.024840 4.469645 -2.772210 0.000000 0.000000 0.000000 -4.880035 13.361328 4.271077 -0.957290 16.968621 0.225603 -39.090986 -2.452527 -11.050685 -3.055088 -35.356894 3.604723 0.000000 0.000000 0.000000 -4.880035 13.361328 4.271077 2.198662 24.802715 12.786028 22.762502 -18.748055 5.747967 35.060833 14.775965 -2.636778 0.000000 0.000000 0.000000 
